<?xml version="1.0" encoding="UTF-8"?>
<svg xmlns="http://www.w3.org/2000/svg" xmlns:xlink="http://www.w3.org/1999/xlink" width="30pt" height="30pt" viewBox="0 0 30 30" version="1.1">
<g id="surface19524">
<path style=" stroke:none;fill-rule:nonzero;fill:rgb(9.019608%,9.019608%,9.411765%);fill-opacity:1;" d="M 14.53125 0.9375 C 7.035156 0.9375 0.9375 7.035156 0.9375 14.53125 C 0.9375 22.027344 7.035156 28.125 14.53125 28.125 C 22.027344 28.125 28.125 22.027344 28.125 14.53125 C 28.125 7.035156 22.027344 0.9375 14.53125 0.9375 Z M 14.53125 1.875 C 21.511719 1.875 27.1875 7.550781 27.1875 14.53125 C 27.1875 21.511719 21.511719 27.1875 14.53125 27.1875 C 7.550781 27.1875 1.875 21.511719 1.875 14.53125 C 1.875 7.550781 7.550781 1.875 14.53125 1.875 Z M 14.417969 3.28125 C 12.589844 3.304688 10.785156 3.785156 9.191406 4.695312 C 8.964844 4.824219 8.886719 5.109375 9.015625 5.332031 C 9.101562 5.484375 9.261719 5.570312 9.421875 5.570312 C 9.503906 5.570312 9.582031 5.550781 9.65625 5.507812 C 11.59375 4.402344 13.882812 3.988281 16.097656 4.34375 C 16.351562 4.382812 16.59375 4.210938 16.632812 3.953125 C 16.675781 3.699219 16.5 3.457031 16.246094 3.417969 C 15.636719 3.320312 15.027344 3.277344 14.417969 3.28125 Z M 18.121094 3.929688 C 17.9375 3.9375 17.769531 4.054688 17.703125 4.234375 C 17.609375 4.476562 17.734375 4.746094 17.976562 4.839844 C 18.3125 4.964844 18.644531 5.109375 18.960938 5.269531 C 19.03125 5.304688 19.101562 5.320312 19.171875 5.320312 C 19.34375 5.320312 19.507812 5.226562 19.589844 5.0625 C 19.707031 4.832031 19.613281 4.546875 19.382812 4.433594 C 19.035156 4.253906 18.671875 4.097656 18.304688 3.960938 C 18.246094 3.9375 18.183594 3.929688 18.121094 3.929688 Z M 14.53125 6.5625 C 12.203125 6.5625 10.3125 8.457031 10.3125 10.78125 L 10.3125 12.1875 L 9.375 12.1875 C 8.859375 12.1875 8.4375 12.609375 8.4375 13.125 L 8.4375 14.0625 C 8.4375 14.234375 8.488281 14.394531 8.570312 14.53125 C 8.488281 14.671875 8.4375 14.828125 8.4375 15 L 8.4375 15.9375 C 8.4375 16.109375 8.488281 16.265625 8.570312 16.40625 C 8.488281 16.546875 8.4375 16.703125 8.4375 16.875 L 8.4375 17.8125 C 8.4375 17.984375 8.488281 18.140625 8.570312 18.28125 C 8.488281 18.417969 8.4375 18.578125 8.4375 18.75 L 8.4375 19.6875 C 8.4375 20.203125 8.859375 20.625 9.375 20.625 L 19.6875 20.625 C 20.203125 20.625 20.625 20.203125 20.625 19.6875 L 20.625 18.75 C 20.625 18.578125 20.574219 18.417969 20.492188 18.28125 C 20.574219 18.140625 20.625 17.984375 20.625 17.8125 L 20.625 16.875 C 20.625 16.703125 20.574219 16.546875 20.492188 16.40625 C 20.574219 16.265625 20.625 16.109375 20.625 15.9375 L 20.625 15 C 20.625 14.828125 20.574219 14.671875 20.492188 14.53125 C 20.574219 14.394531 20.625 14.234375 20.625 14.0625 L 20.625 13.125 C 20.625 12.609375 20.203125 12.1875 19.6875 12.1875 L 18.75 12.1875 L 18.75 10.78125 C 18.75 8.457031 16.859375 6.5625 14.53125 6.5625 Z M 14.53125 7.5 C 16.339844 7.5 17.8125 8.972656 17.8125 10.78125 L 17.8125 12.1875 L 11.25 12.1875 L 11.25 10.78125 C 11.25 8.972656 12.722656 7.5 14.53125 7.5 Z M 9.375 13.125 L 19.6875 13.125 L 19.6875 14.0625 L 9.375 14.0625 Z M 9.375 15 L 13.125 15 L 13.125 15.9375 L 9.375 15.9375 Z M 14.0625 15 L 15 15 L 15 17.8125 L 14.0625 17.8125 Z M 15.9375 15 L 19.6875 15 L 19.6875 15.9375 L 15.9375 15.9375 Z M 9.375 16.875 L 13.125 16.875 L 13.125 17.8125 L 9.375 17.8125 Z M 15.9375 16.875 L 19.6875 16.875 L 19.6875 17.8125 L 15.9375 17.8125 Z M 9.375 18.75 L 19.6875 18.75 L 19.6875 19.6875 L 9.375 19.6875 Z M 10.019531 22.683594 C 9.835938 22.664062 9.652344 22.746094 9.554688 22.914062 L 9.085938 23.726562 C 8.957031 23.953125 9.035156 24.238281 9.257812 24.367188 C 9.332031 24.410156 9.410156 24.429688 9.492188 24.429688 C 9.652344 24.429688 9.8125 24.347656 9.898438 24.195312 L 10.367188 23.382812 C 10.496094 23.160156 10.417969 22.875 10.195312 22.746094 C 10.140625 22.710938 10.078125 22.691406 10.019531 22.683594 Z M 19.042969 22.683594 C 18.984375 22.691406 18.921875 22.710938 18.867188 22.746094 C 18.644531 22.875 18.566406 23.160156 18.695312 23.386719 L 19.164062 24.195312 C 19.25 24.347656 19.410156 24.429688 19.570312 24.429688 C 19.652344 24.429688 19.730469 24.410156 19.804688 24.367188 C 20.027344 24.238281 20.105469 23.953125 19.976562 23.726562 L 19.507812 22.917969 C 19.410156 22.75 19.222656 22.664062 19.042969 22.683594 Z M 16.960938 23.597656 C 16.902344 23.589844 16.835938 23.59375 16.773438 23.609375 C 16.523438 23.675781 16.375 23.933594 16.445312 24.183594 L 16.6875 25.089844 C 16.742188 25.300781 16.933594 25.4375 17.140625 25.4375 C 17.179688 25.4375 17.21875 25.433594 17.261719 25.421875 C 17.511719 25.355469 17.660156 25.097656 17.59375 24.847656 L 17.351562 23.941406 C 17.300781 23.753906 17.144531 23.625 16.960938 23.597656 Z M 12.101562 23.597656 C 11.921875 23.625 11.761719 23.753906 11.710938 23.941406 L 11.46875 24.847656 C 11.402344 25.097656 11.550781 25.355469 11.800781 25.421875 C 11.84375 25.433594 11.882812 25.4375 11.921875 25.4375 C 12.128906 25.4375 12.320312 25.300781 12.375 25.089844 L 12.617188 24.183594 C 12.6875 23.933594 12.539062 23.675781 12.289062 23.609375 C 12.226562 23.59375 12.160156 23.589844 12.101562 23.597656 Z M 14.53125 23.90625 C 14.273438 23.90625 14.0625 24.117188 14.0625 24.375 L 14.0625 25.3125 C 14.0625 25.570312 14.273438 25.78125 14.53125 25.78125 C 14.789062 25.78125 15 25.570312 15 25.3125 L 15 24.375 C 15 24.117188 14.789062 23.90625 14.53125 23.90625 Z M 14.53125 23.90625 "/>
</g>
</svg>
